<?xml version="1.0" encoding="utf-8"?>
<!-- Generator: Adobe Illustrator 16.0.0, SVG Export Plug-In . SVG Version: 6.00 Build 0)  -->
<!DOCTYPE svg PUBLIC "-//W3C//DTD SVG 1.1//EN" "http://www.w3.org/Graphics/SVG/1.1/DTD/svg11.dtd">
<svg version="1.1" id="Layer_1" xmlns="http://www.w3.org/2000/svg" xmlns:xlink="http://www.w3.org/1999/xlink" x="0px" y="0px"
	 width="512px" height="512px" viewBox="0 0 512 512" enable-background="new 0 0 512 512" xml:space="preserve">
<path fill-rule="evenodd" clip-rule="evenodd" fill="#81709A" d="M459.557,95.509c-67.894-0.01-135.788-0.003-203.678,0.006
	c-68.147,0.009-136.292-0.041-204.438,0.032c-28.302,0.03-45.153,17.04-45.16,45.332C6.261,220.13,6.267,299.38,6.273,378.631
	c0.001,28.98,16.584,45.826,45.408,45.837c136.544,0.041,273.087,0.035,409.632,0c27.247-0.006,44.398-17.282,44.405-44.557
	c0.018-79.503,0.021-159.006,0-238.509C505.712,112.161,488.948,95.512,459.557,95.509z M29.296,134.874
	c0.793-9.118,8.036-15.421,17.237-16.205c2.258-0.192,4.539-0.136,6.809-0.136c135.025,0,270.049,0.003,405.073,0.009
	c18.444,0.003,24.543,6.048,24.614,24.387c0.021,5.268,0.003,10.536,0.003,16.506c-151.318,0-302.062,0-453.881,0
	C29.151,150.906,28.604,142.837,29.296,134.874z M483.026,378.808c-0.012,15.771-6.859,22.644-22.557,22.646
	c-136.277,0.018-272.552,0.022-408.828,0.017c-15.697-0.003-22.65-6.906-22.66-22.57c-0.031-47.696,0.084-95.395-0.136-143.09
	c-0.028-5.874,1.465-7.714,7.551-7.708c146.37,0.166,292.741,0.127,439.11,0.148c2.204,0,4.411,0.294,7.534,0.516
	c0,3.196,0.003,5.453,0,7.709C483.041,283.92,483.057,331.364,483.026,378.808z M187.955,321.383
	c-0.031,25.803-20.47,46.264-46.116,46.167c-25.059-0.094-45.724-20.799-45.837-45.923c-0.112-25.387,20.903-46.299,46.361-46.131
	C167.759,275.662,187.986,296.019,187.955,321.383z M107.604,363.685c-14.04,8.284-36.356,3.088-49.671-11.565
	c-14.321-15.762-15.506-41.142-2.708-57.996c12.688-16.709,35.324-23.284,52.325-15.197
	C81.274,312.709,81.289,333.955,107.604,363.685z M290.477,321.178c0.188,6.883-4.384,11.571-11.933,11.643
	c-15.619,0.147-31.242,0.168-46.859,0.001c-7.235-0.076-11.63-4.491-11.753-11.057c-0.127-6.89,4.406-11.52,11.921-11.705
	c7.806-0.193,15.62-0.043,23.429-0.033c7.812,0.009,15.625-0.129,23.431,0.051C285.861,310.239,290.299,314.594,290.477,321.178z
	 M462.035,321.598c-0.053,6.83-4.585,11.184-12.331,11.252c-15.366,0.139-30.734,0.146-46.099-0.026
	c-7.736-0.087-12.209-4.588-12.088-11.491c0.118-6.938,4.57-11.122,12.366-11.274c7.558-0.147,15.115-0.031,22.672-0.029
	c7.558,0.003,15.118-0.081,22.675,0.025C457.353,310.169,462.092,314.525,462.035,321.598z M376.276,321.392
	c0.085,6.751-4.553,11.341-12.195,11.423c-15.365,0.165-30.738,0.163-46.104,0.022c-7.832-0.072-12.286-4.371-12.319-11.274
	c-0.032-6.831,4.57-11.331,12.145-11.485c7.807-0.163,15.621-0.036,23.429-0.036c0-0.012,0-0.021,0-0.03
	c7.558,0,15.118-0.116,22.675,0.034C371.396,310.194,376.189,314.727,376.276,321.392z"/>
</svg>
