<svg id="Layer_1" data-name="Layer 1" xmlns="http://www.w3.org/2000/svg" viewBox="0 0 500 500"><defs><style>.cls-1{fill:#fff;fill-rule:evenodd;}</style></defs><title>card&amp;apos;</title><path class="cls-1" d="M443.38,93.07H249.88q-97.11,0-194.21,0c-26.89,0-42.9,16.19-42.91,43.07q0,112.94,0,225.86c0,27.54,15.75,43.54,43.13,43.55q194.58.06,389.16,0c25.88,0,42.18-16.42,42.19-42.33q0-113.29,0-226.58C487.23,108.89,471.3,93.07,443.38,93.07ZM34.63,130.46c.75-8.66,7.63-14.65,16.37-15.39,2.15-.18,4.32-.13,6.47-.13H442.3c17.52,0,23.31,5.74,23.38,23.17,0,5,0,10,0,15.68H34.49C34.49,145.69,34,138,34.63,130.46ZM465.68,362.2c0,15-6.52,21.52-21.43,21.52q-194.21,0-388.39,0c-14.92,0-21.52-6.56-21.53-21.44,0-45.31.08-90.62-.13-135.94,0-5.58,1.39-7.33,7.17-7.32q208.59.24,417.17.14c2.09,0,4.19.28,7.15.49V227Q465.69,294.6,465.68,362.2ZM185.36,307.65a43.51,43.51,0,0,1-43.82,43.86,43.73,43.73,0,1,1,.5-87.45A43.38,43.38,0,0,1,185.36,307.65ZM109,347.84c-13.34,7.87-34.54,2.93-47.19-11-13.6-15-14.73-39.09-2.57-55.1S92.82,259.63,109,267.31C84,299.41,84,319.59,109,347.84Zm173.73-40.39c.18,6.54-4.16,11-11.33,11.06q-22.26.21-44.52,0c-6.87-.08-11.05-4.27-11.17-10.51-.12-6.54,4.19-10.94,11.33-11.12,7.42-.18,14.84,0,22.26,0s14.84-.12,22.26.05C278.37,297.06,282.58,301.2,282.75,307.45Zm163,.4c-.05,6.49-4.36,10.63-11.72,10.69q-21.9.19-43.79,0c-7.35-.08-11.6-4.36-11.49-10.92s4.35-10.56,11.75-10.71c7.18-.14,14.36,0,21.54,0s14.36-.08,21.54,0C441.29,297,445.79,301.13,445.74,307.85Zm-81.48-.19c.09,6.41-4.32,10.77-11.58,10.85q-21.9.24-43.8,0c-7.44-.07-11.67-4.15-11.7-10.71s4.34-10.77,11.53-10.91c7.42-.16,14.84,0,22.26,0v0c7.18,0,14.36-.12,21.54,0S364.18,301.33,364.26,307.66Z"/></svg>