<svg id="Layer_1" data-name="Layer 1" xmlns="http://www.w3.org/2000/svg" viewBox="0 0 500 500"><defs><style>.cls-1{fill:#fff;fill-rule:evenodd;}</style></defs><title>cart</title><path class="cls-1" d="M429.76,342.45c12.1,0,18.93-5.49,20.86-17.17C461.06,262.18,471,199,482,136c3.6-20.66-1.15-25.07-21-25-110,.39-220,.19-330,.2h-6.32c-.41-1.59-.63-2.35-.79-3.13C120,88.6,116.15,69.12,112.07,49.7c-2-9.31-9.1-15.45-18.13-15.53-19.88-.19-39.75-.13-59.62,0-6.47,0-11.07,3.4-13.65,9.2C16.12,53.6,23.32,64.49,35,64.68c16,.27,32.09.07,48.9.07,2.29,11.6,4.43,22.6,6.64,33.6Q119.75,244,149,389.61c.77,3.81,0,6.06-3.31,8.51A45.85,45.85,0,0,0,129,447.44,46.85,46.85,0,0,0,169,481a45.87,45.87,0,0,0,45.93-25.58c2-4.15,4.31-5.27,8.66-5.25q65.34.21,130.68,0c4.72,0,7.26,1.12,9.56,5.7a45.89,45.89,0,0,0,64.32,19.05c22.66-13.16,30-42.94,15.65-64.88-9.66-14.8-23.74-22.22-41.3-21.26-17.77,1-30.89,10-39.3,25.85-1.09,2.06-3.65,4.74-5.54,4.75q-68.36.39-136.71.07a6.5,6.5,0,0,1-4.84-3.07c-6.74-14.18-17.63-23-32.83-26.8-1.34-.34-3.29-1.46-3.52-2.52-3.09-14.62-5.92-29.3-8.94-44.55h8.44Q304.49,342.46,429.76,342.45Zm-24.93,77.12a15.29,15.29,0,1,1-15.41,15.14A15.31,15.31,0,0,1,404.83,419.57ZM250.15,311H204.92V265.58h45.23Zm61.66.17H266.55V265.69h45.26Zm61.87-61.69H328.12V204.22h45.56ZM423.48,311H389.72V265.72h40.06C427.67,280.88,425.61,295.7,423.48,311Zm8.58-61.33h-42.3V204.19h48.61C436.28,219.22,434.21,234.16,432.06,249.63ZM393.22,141.82c17.59.12,35.18.05,53.89.05-2.23,15.89-4.33,30.88-6.47,46.1H389.35v-9.81c0-10.41,0-20.81,0-31.22C389.33,144.18,389.23,141.79,393.22,141.82Zm-65.21,0h15.46c8.6,0,17.21,0,25.82,0,2.53,0,4.82-.07,4.79,3.59-.09,14,0,27.94,0,42.37H328Zm0,123.85h45.63v45.4H328ZM266.53,142.22h45.31v45.6H266.53Zm0,61.81H311.9v45.48H266.48Zm-61.65-61.91h45.29v45.82H204.83Zm0,61.95h45.54v45.34H204.8Zm-74.14-61.94h57.85v45.79H139.85Zm12.41,62h45.7V249.4H152.13C149.13,234.43,146.15,219.57,143.07,204.16Zm30.24,215.41A15.28,15.28,0,1,1,158.15,435,15.26,15.26,0,0,1,173.31,419.57ZM167.6,311.24c-1.33-.06-3.41-2-3.71-3.38-3-13.87-5.63-27.81-8.47-42.16h33.27v45.7C181.49,311.4,174.53,311.58,167.6,311.24Z"/></svg>