<?xml version="1.0" encoding="utf-8"?>
<!-- Generator: Adobe Illustrator 16.0.0, SVG Export Plug-In . SVG Version: 6.00 Build 0)  -->
<!DOCTYPE svg PUBLIC "-//W3C//DTD SVG 1.1//EN" "http://www.w3.org/Graphics/SVG/1.1/DTD/svg11.dtd">
<svg version="1.1" id="Layer_1" xmlns="http://www.w3.org/2000/svg" xmlns:xlink="http://www.w3.org/1999/xlink" x="0px" y="0px"
	 width="512px" height="512px" viewBox="0 0 512 512" enable-background="new 0 0 512 512" xml:space="preserve">
<path fill-rule="evenodd" clip-rule="evenodd" fill="#81709A" d="M436.43,347.746c12.47-0.004,19.508-5.654,21.498-17.686
	c10.753-65.004,20.988-130.098,32.325-195c3.716-21.282-1.18-25.827-21.607-25.754c-113.32,0.402-226.644,0.199-339.967,0.204
	c-2.208,0-4.416,0-6.514,0c-0.416-1.635-0.65-2.42-0.811-3.22c-4.049-20.037-7.972-40.1-12.179-60.104
	c-2.017-9.59-9.374-15.92-18.677-16.004c-20.472-0.188-40.945-0.129-61.417-0.032c-6.656,0.031-11.401,3.506-14.054,9.483
	c-4.687,10.565,2.727,21.787,14.78,21.984c16.523,0.271,33.054,0.068,50.37,0.068c2.359,11.949,4.567,23.285,6.837,34.608
	c20.05,100.017,40.094,200.034,60.224,300.034c0.79,3.922-0.026,6.248-3.404,8.77c-15.896,11.869-22.558,32.057-17.25,50.801
	c5.283,18.654,22.047,32.717,41.19,34.541c19.764,1.887,38.662-8.387,47.315-26.35c2.06-4.275,4.446-5.426,8.923-5.41
	c44.873,0.152,89.748,0.156,134.62-0.014c4.86-0.018,7.475,1.15,9.846,5.873c12.378,24.641,42.575,33.369,66.251,19.621
	c23.343-13.557,30.881-44.236,16.127-66.838c-9.949-15.24-24.459-22.883-42.546-21.902c-18.307,0.992-31.821,10.287-40.487,26.635
	c-1.122,2.115-3.757,4.881-5.705,4.889c-46.94,0.275-93.885,0.248-140.826,0.078c-1.709-0.006-4.251-1.621-4.983-3.162
	c-6.944-14.609-18.166-23.734-33.825-27.613c-1.376-0.344-3.39-1.5-3.619-2.592c-3.183-15.063-6.105-30.18-9.212-45.889
	c3.375,0,6.036,0,8.698,0C264.379,347.76,350.404,347.766,436.43,347.746z M410.758,427.193c8.737,0.002,15.756,6.895,15.868,15.59
	c0.117,8.861-7.178,16.035-16.172,15.9c-8.712-0.127-15.669-7.232-15.573-15.9C394.977,434.076,401.986,427.191,410.758,427.193z
	 M251.415,315.367c-15.382,0-30.768,0-46.593,0c0-15.375,0-30.758,0-46.807c15.688,0,30.924,0,46.593,0
	C251.415,284.156,251.415,299.543,251.415,315.367z M314.935,315.537c-15.707,0-30.922,0-46.627,0c0-15.492,0-31.004,0-46.859
	c15.452,0,30.807,0,46.627,0C314.935,284.18,314.935,299.521,314.935,315.537z M378.67,251.993c-15.662,0-31.06,0-46.935,0
	c0-15.337,0-30.704,0-46.64c15.47,0,30.999,0,46.935,0C378.67,220.851,378.67,236.232,378.67,251.993z M429.964,315.313
	c-11.538,0-22.966,0-34.777,0c0-15.48,0-30.855,0-46.604c13.787,0,27.301,0,41.27,0
	C434.279,284.324,432.155,299.588,429.964,315.313z M438.802,252.137c-14.791,0-28.969,0-43.572,0c0-15.551,0-30.916,0-46.816
	c16.514,0,32.869,0,50.07,0C443.151,220.808,441.015,236.193,438.802,252.137z M398.796,141.076
	c18.115,0.121,36.233,0.053,55.508,0.053c-2.296,16.37-4.461,31.807-6.661,47.492c-17.449,0-34.513,0-52.833,0
	c0-3.357,0-6.732,0-10.107c0.002-10.721,0.024-21.443-0.013-32.164C394.787,143.511,394.683,141.05,398.796,141.076z
	 M331.621,141.122c5.351,0,10.637,0,15.924,0c8.864,0,17.731,0.018,26.598-0.01c2.609-0.008,4.962-0.076,4.936,3.69
	c-0.092,14.396-0.037,28.791-0.037,43.653c-16.058,0-31.557,0-47.42,0C331.621,172.841,331.621,157.467,331.621,141.122z
	 M331.614,268.697c15.738,0,31.137,0,46.999,0c0,15.436,0,30.799,0,46.77c-15.837,0-31.243,0-46.999,0
	C331.614,299.775,331.614,284.416,331.614,268.697z M268.291,141.492c15.474,0,30.853,0,46.668,0c0,15.72,0,31.107,0,46.968
	c-15.445,0-30.818,0-46.668,0C268.291,172.959,268.291,157.415,268.291,141.492z M268.232,205.159c15.683,0,31.054,0,46.793,0
	c0,15.741,0,31.114,0,46.849c-15.59,0-30.981,0-46.793,0C268.232,236.442,268.232,220.903,268.232,205.159z M204.726,141.39
	c15.788,0,30.991,0,46.658,0c0,15.798,0,31.324,0,47.194c-15.594,0-30.954,0-46.658,0
	C204.726,172.841,204.726,157.439,204.726,141.39z M204.704,205.202c15.584,0,30.926,0,46.908,0c0,15.819,0,31.03,0,46.703
	c-15.571,0-31.078,0-46.908,0C204.704,236.333,204.704,220.977,204.704,205.202z M128.326,141.396c20.394,0,39.751,0,59.598,0
	c0,15.74,0,31.272,0,47.17c-16.525,0-32.96,0-50.13,0C134.714,173.219,131.613,157.767,128.326,141.396z M141.106,205.29
	c15.772,0,31.124,0,47.083,0c0,15.664,0,30.897,0,46.604c-12.482,0-24.922,0-37.748,0
	C147.352,236.478,144.286,221.168,141.106,205.29z M172.263,427.188c8.81-0.088,15.854,6.625,16.097,15.342
	c0.252,8.945-6.844,16.154-15.875,16.137c-8.802-0.018-15.72-6.84-15.84-15.623C156.525,434.418,163.562,427.275,172.263,427.188z
	 M166.381,315.602c-1.373-0.068-3.517-2.063-3.823-3.484c-3.057-14.289-5.803-28.645-8.728-43.432c11.851,0,22.907,0,34.271,0
	c0,15.709,0,31.07,0,47.078C180.688,315.764,173.522,315.951,166.381,315.602z"/>
</svg>
