<svg id="Layer_1" data-name="Layer 1" xmlns="http://www.w3.org/2000/svg" viewBox="0 0 500 500">
    <defs>
        <style>.cls-1{fill:#fff;fill-rule:evenodd;}</style>
    </defs>
    <title>spending</title>
    <path class="cls-1"
          d="M486.15,475c-1.33-.09-2.67,0-4,0h-26c.09-.45.17-.91.22-1.38.14-1.49.06-3,.06-4.5q0-113,0-225.93,0-65.22.2-130.45c0-7.89-4.39-12.71-12.12-12.73q-41.49-.07-83,0c-7.64,0-11.79,4.15-11.87,11.71-.08,8.83,0,17.67,0,26.5V164h-.95v21.49h.93V191q0,140.72-.06,281.43a18.93,18.93,0,0,0,.18,2.56H331.51a12.92,12.92,0,0,0,.16-1.9c.12-18.66.07-37.33.07-56V178.65c0-11.62-3.09-14.69-14.87-14.69l-51.28,0-51.28,0c-11.77,0-14.87,3.07-14.87,14.69q0,119.23,0,238.45c0,18.66,0,37.33.07,56a11.69,11.69,0,0,0,.16,1.9H183.39a16,16,0,0,0,.36-3.1c0-.5,0-1,0-1.5v-122c0-10.35-3.67-13.71-15.05-13.72q-35.1,0-70.22,0H91v0H67.43q-.11,68.52-.25,137a18,18,0,0,0,.29,3.27H28.79v-5.23q0-192.94,0-385.89c0-21.5-.05-43,0-64.48,0-4.52-1.28-8.21-5.27-10.58C16.37,4.54,7.81,9.4,7.64,18c-.2,10,0,19.92,0,30.23l-.84.05v21.6h.5v63.93h-.5V155h.39V218.9l-.39,0v21.9l.5,0v63.31l-.5,0v21.37h.49v64.21H6.75V411h.39v63.92H6.75V496H488a10.36,10.36,0,0,0,8.58-10.33C496.6,480,492.19,475.45,486.15,475Z"/>
    <path class="cls-1"
          d="M250.6,86.84l14.52,14.83c6.17-19.47,12.18-38.44,18.42-58.11L225,60.43l14.9,15.43C208.83,109.14,98,222.16,67,255.42l-1,20.07,1.75.95C102.16,239.78,216.31,123.38,250.6,86.84Z"/>
</svg>
