<svg id="Layer_1" data-name="Layer 1" xmlns="http://www.w3.org/2000/svg" viewBox="0 0 500 500"><defs><style>.cls-1{fill:#fff;}</style></defs><title>Star</title><path class="cls-1" d="M424.38,75.62A246.61,246.61,0,0,0,75.62,424.38,246.61,246.61,0,0,0,424.38,75.62ZM401,219.87c-28.11,20.67-56.19,41.39-84.43,61.88-4.45,3.23-5.57,6.11-3.75,11.58,10.91,32.86,21.38,65.86,32,98.82.56,1.74,1,3.53,2,7.23-4.69-3.26-8-5.48-11.23-7.82-26.57-19.2-53.21-38.3-79.6-57.74-4.16-3.06-6.93-3-11-.11q-43,31.08-86.18,61.83c-1.5,1.07-3.07,2-6,3.94,11.41-35.47,22.22-69.06,33-102.66,3.41-10.59,3.46-10.7-5.75-17.49q-40.17-29.58-80.45-59c-1.66-1.22-3.3-2.47-6.14-4.59,3.11-.34,5-.71,6.88-.72,35.14-.21,70.29-.51,105.43-.4,5.45,0,7.68-1.79,9.27-6.79,11.19-35.22,22.67-70.36,34.63-107.3,1.49,4,2.49,6.45,3.31,9,10.77,32.92,21.66,65.8,32.12,98.81,1.59,5,3.86,6.3,8.81,6.29,35.15,0,70.29.24,105.44.42,1.83,0,3.67.17,7,.33C404,217.41,402.56,218.73,401,219.87Z"/></svg>