<?xml version="1.0" encoding="utf-8"?>
<!-- Generator: Adobe Illustrator 16.0.0, SVG Export Plug-In . SVG Version: 6.00 Build 0)  -->
<!DOCTYPE svg PUBLIC "-//W3C//DTD SVG 1.1//EN" "http://www.w3.org/Graphics/SVG/1.1/DTD/svg11.dtd">
<svg version="1.1" id="Layer_1" xmlns="http://www.w3.org/2000/svg" xmlns:xlink="http://www.w3.org/1999/xlink" x="0px" y="0px"
	 width="512px" height="512px" viewBox="0 0 512 512" enable-background="new 0 0 512 512" xml:space="preserve">
<path fill="#81709A" d="M381.881,202.472c-25.112,0.078-50.222,0.236-75.332,0.538c-3.387,0.041-4.803-1.076-5.771-4.279
	c-4.188-13.865-8.661-27.645-13.025-41.456c-3.567-11.282-7.029-22.596-10.719-33.836c-4.593-13.997-18.646-20.41-31.195-14.342
	c-6.742,3.259-10.383,8.959-12.498,15.938c-7.506,24.761-15.15,49.48-22.583,74.263c-0.934,3.11-2.403,4.167-5.58,4.131
	c-12.609-0.145-25.22-0.06-37.831-0.06c0,0.126,0,0.25,0,0.376c-12.723,0-25.444-0.058-38.166,0.019
	c-9.522,0.057-17.574,5.739-20.999,14.599c-3.922,10.143-0.815,20.667,8.427,27.662c20.112,15.218,40.294,30.342,60.451,45.5
	c4.355,3.273,4.378,3.269,2.83,8.336c-4.617,15.122-9.293,30.226-13.857,45.364c-3.35,11.112-7.457,22.028-9.862,33.387
	c-1.904,8.995,1.371,16.702,8.597,22.29c7.081,5.472,14.964,6.154,23.122,2.306c2.619-1.236,4.853-3.071,7.134-4.824
	c19.472-14.962,38.971-29.886,58.381-44.934c2.236-1.732,3.786-1.834,6.027-0.068c6.169,4.855,12.516,9.489,18.794,14.204
	c14.505,10.894,28.93,21.899,43.553,32.633c8.205,6.023,18.149,6.079,26.105,0.736c7.956-5.344,11.796-15.155,9.455-24.73
	c-0.649-2.66-2.027-5.136-2.859-7.763c-7.507-23.718-14.935-47.461-22.489-71.166c-0.769-2.413-0.283-3.814,1.707-5.318
	c10.854-8.205,21.612-16.535,32.404-24.821c9.739-7.477,19.465-14.972,29.223-22.423c5.967-4.555,9.49-10.483,9.899-18.002
	C405.96,213.221,395.613,202.43,381.881,202.472z M385.085,228.363c-0.903,0.957-1.963,1.781-3.012,2.586
	c-23.333,17.922-46.642,35.878-70.06,53.685c-2.483,1.889-2.832,3.461-1.912,6.34c8.615,26.961,17.061,53.976,25.565,80.97
	c0.631,2.002,1.232,4.027,2.068,5.947c1.052,2.417,2.237,4.836-0.317,6.92c-2.73,2.229-4.73-0.03-6.705-1.516
	c-19.37-14.543-38.718-29.117-58.072-43.681c-4.418-3.326-8.954-6.509-13.217-10.026c-2.355-1.946-3.961-1.662-6.268,0.123
	c-22.833,17.665-45.755,35.214-68.652,52.796c-0.877,0.673-1.756,1.344-2.634,2.017c-1.592,1.216-3.22,2.736-5.337,1.37
	c-2.294-1.479-1.953-3.802-1.289-5.984c4.405-14.493,8.852-28.973,13.288-43.455c4.631-15.116,9.193-30.255,13.96-45.328
	c0.852-2.693,0.257-4.107-1.939-5.746c-22.952-17.144-45.822-34.393-68.714-51.616c-1.325-0.997-2.627-2.027-3.962-3.01
	c-1.908-1.408-2.688-3.238-1.91-5.512c0.744-2.173,2.616-2.435,4.599-2.446c14.157-0.079,28.316-0.174,42.474-0.263
	c0.885-0.005,1.77,0,2.655,0c0-0.05,0-0.103,0-0.153c14.71,0,29.423-0.073,44.133,0.064c2.854,0.026,4.02-0.982,4.827-3.644
	c8.798-29.104,17.716-58.168,26.603-87.245c0.129-0.423,0.252-0.849,0.385-1.269c0.641-2.023,1.156-4.289,3.89-4.234
	c2.505,0.05,3.103,2.15,3.715,4.073c2.612,8.219,5.217,16.439,7.815,24.662c6.662,21.084,13.382,42.151,19.91,63.278
	c0.927,3,2.343,3.894,5.392,3.87c28.426-0.214,56.854-0.284,85.281-0.392c1.55-0.006,3.097,0.01,4.646,0.02
	c1.584,0.009,2.838,0.656,3.435,2.143C386.38,225.335,386.364,227.012,385.085,228.363z M430.116,81.998
	C383.579,35.461,321.704,9.832,255.891,9.832S128.202,35.461,81.665,81.998C35.127,128.535,9.498,190.41,9.498,256.224
	s25.629,127.688,72.167,174.226c46.538,46.538,108.413,72.167,174.226,72.167s127.688-25.629,174.226-72.167
	c46.538-46.537,72.167-108.412,72.167-174.226S476.654,128.535,430.116,81.998z M255.891,480.286
	c-123.548,0-224.063-100.514-224.063-224.063c0-123.548,100.515-224.063,224.063-224.063c123.549,0,224.063,100.514,224.063,224.063
	C479.953,379.772,379.439,480.286,255.891,480.286z"/>
</svg>
